# xmcd CD database file
#
# Track frame offsets:
#	182
#	11155
#	23112
#	35005
#	47832
#	59440
#	72980
#	83110
#	92537
#	102450
#	113345
#	123802
#
# Disc length: 1802 seconds
#
# Revision: 0
# Processed by: cddbd v1.5.1PL2 Copyright (c) Steve Scherf et al.
# Submitted via: CDex 1.51
#
DISCID=9607080c
DTITLE=Eddy Arnold - Eddy's Songs
DYEAR=1996
DGENRE=Country
TTITLE0=Eddy's Song
TTITLE1=Roll Along Kentuck Moon
TTITLE2=There's No Wings On My Angel
TTITLE3=When My Blue Moon Turns To Gold Again
TTITLE4=Condemned Without Trial
TTITLE5=Why Should I Cry?
TTITLE6=Chip Off The Old Block
TTITLE7=The Day You Left Me
TTITLE8=I'm A Good Boy
TTITLE9=The Worst Night Of My Life
TTITLE10=One Kiss Too Many
TTITLE11=Kentucky Waltz
EXTD=YEAR: 1996
EXTT0=
EXTT1=
EXTT2=
EXTT3=
EXTT4=
EXTT5=
EXTT6=
EXTT7=
EXTT8=
EXTT9=
EXTT10=
EXTT11=
PLAYORDER=
